<?xml version="1.0" encoding="utf-8"?>

<!-- Uploaded to: SVG Repo, www.svgrepo.com, Generator: SVG Repo Mixer Tools -->
<svg version="1.1" id="Icons" xmlns="http://www.w3.org/2000/svg" xmlns:xlink="http://www.w3.org/1999/xlink" 
	 viewBox="0 0 32 32" xml:space="preserve">
<style type="text/css">
	.st0{fill:none;stroke:#000000;stroke-width:2;stroke-linecap:round;stroke-linejoin:round;stroke-miterlimit:10;}
</style>
<g>
	<g>
		<path d="M17.7,7.3C17.5,7.1,17.3,7,17,7s-0.5,0.1-0.7,0.3C16.1,7.5,16,7.7,16,8s0.1,0.5,0.3,0.7c0.4,0.4,1,0.4,1.4,0
			C17.9,8.5,18,8.3,18,8S17.9,7.5,17.7,7.3C17.7,7.3,17.7,7.3,17.7,7.3z"/>
	</g>
	<g>
		<path d="M17,0c-4.4,0-8,3.6-8,8s3.6,8,8,8s8-3.6,8-8S21.4,0,17,0z M20,8c0,0.5-0.1,0.9-0.3,1.3l0.8,0.8c0.4,0.4,0.4,1,0,1.4
			c-0.2,0.2-0.5,0.3-0.7,0.3s-0.5-0.1-0.7-0.3l-0.8-0.8C17.9,10.9,17.4,11,17,11s-0.9-0.1-1.3-0.3l-0.8,0.8
			c-0.2,0.2-0.5,0.3-0.7,0.3s-0.5-0.1-0.7-0.3c-0.4-0.4-0.4-1,0-1.4l0.8-0.8C14.1,8.9,14,8.5,14,8s0.1-0.9,0.3-1.3l-0.8-0.8
			c-0.4-0.4-0.4-1,0-1.4c0.4-0.4,1-0.4,1.4,0l0.8,0.8c0.8-0.4,1.8-0.4,2.6,0l0.8-0.8c0.4-0.4,1-0.4,1.4,0c0.4,0.4,0.4,1,0,1.4
			l-0.8,0.8C19.9,7.1,20,7.5,20,8z"/>
	</g>
	<g>
		<path d="M16.1,7.6l0.2-0.3l0.3-0.1c0.3-0.1,0.6-0.1,0.9,0l0.3,0.1l0.2,0.3C18,7.7,18,7.9,18,8s0,0.3-0.1,0.4l-0.2,0.3l-0.3,0.1
			c-0.3,0.1-0.6,0.1-0.9,0l-0.3-0.1l-0.2-0.3C16,8.3,16,8.1,16,8S16,7.7,16.1,7.6z"/>
	</g>
</g>
<path d="M26.7,18.1l-1.2-1.9c-0.5-0.8-1-1.7-1.4-2.6c-1.5,1.9-3.6,3.2-6.1,3.4c0,0.1,0,0.2,0,0.3c1,0.7,1.8,1.7,2.4,2.8
	c0.2,0.5,0,1.1-0.5,1.3c-0.1,0.1-0.3,0.1-0.4,0.1c-0.4,0-0.7-0.2-0.9-0.6c-0.5-1.1-1.3-1.9-2.3-2.4c-0.9-0.4-1.9-0.6-2.9-0.6h-2
	c-0.4-1-1-1.9-1.8-2.7C8.1,13.8,6.1,13,4,13c-0.4,0-0.8,0.3-0.9,0.7l-0.7,2.2c-2,6.1,0.6,12.8,6.2,16C8.7,32,8.8,32,9,32
	c0.1,0,0.2,0,0.3,0c0.3-0.1,0.5-0.3,0.6-0.5l0.5-1.1c3.2,1.6,7,1.6,10.3,0.1l7.7-3.6c0.4-0.2,0.6-0.5,0.6-0.9
	C29,23.2,28.2,20.5,26.7,18.1z"/>
</svg>